<svg width="1437" height="798" viewBox="0 0 1437 798" fill="none" xmlns="http://www.w3.org/2000/svg">
<g clip-path="url(#clip0_269_136)">
<rect width="1437" height="798" fill="white"/>
<line x1="311.5" y1="119" x2="311.5" y2="467" stroke="#E6E6E6"/>
<line x1="437.5" y1="119" x2="437.5" y2="467" stroke="#E6E6E6"/>
<line x1="609" y1="235.5" x2="137" y2="235.5" stroke="#E6E6E6"/>
<line x1="609" y1="342.5" x2="137" y2="342.5" stroke="#E6E6E6"/>
<line x1="546.5" y1="119" x2="546.5" y2="467" stroke="#E6E6E6"/>
<line x1="673.5" y1="119" x2="673.5" y2="467" stroke="#E6E6E6"/>
<line x1="844" y1="235.5" x2="372" y2="235.5" stroke="#E6E6E6"/>
<line x1="844" y1="342.5" x2="372" y2="342.5" stroke="#E6E6E6"/>
<line x1="311.5" y1="331" x2="311.5" y2="679" stroke="#E6E6E6"/>
<line x1="437.5" y1="331" x2="437.5" y2="679" stroke="#E6E6E6"/>
<line x1="609" y1="446.5" x2="137" y2="446.5" stroke="#E6E6E6"/>
<line x1="609" y1="553.5" x2="137" y2="553.5" stroke="#E6E6E6"/>
<line x1="546.5" y1="331" x2="546.5" y2="679" stroke="#E6E6E6"/>
<line x1="673.5" y1="331" x2="673.5" y2="679" stroke="#E6E6E6"/>
<line x1="844" y1="446.5" x2="372" y2="446.5" stroke="#E6E6E6"/>
<line x1="844" y1="553.5" x2="372" y2="553.5" stroke="#E6E6E6"/>
<g filter="url(#filter0_f_269_136)">
<ellipse cx="1094.52" cy="505.408" rx="285.522" ry="277.408" fill="white"/>
</g>
<g filter="url(#filter1_f_269_136)">
<ellipse cx="31.5" cy="798" rx="170.5" ry="191" fill="#A4FCB7" fill-opacity="0.49"/>
</g>
<g filter="url(#filter2_f_269_136)">
<ellipse cx="1459" cy="216.5" rx="198" ry="182.5" fill="#A4FCB7" fill-opacity="0.44"/>
</g>
</g>
<defs>
<filter id="filter0_f_269_136" x="509" y="-72" width="1171.04" height="1154.82" filterUnits="userSpaceOnUse" color-interpolation-filters="sRGB">
<feFlood flood-opacity="0" result="BackgroundImageFix"/>
<feBlend mode="normal" in="SourceGraphic" in2="BackgroundImageFix" result="shape"/>
<feGaussianBlur stdDeviation="150" result="effect1_foregroundBlur_269_136"/>
</filter>
<filter id="filter1_f_269_136" x="-389" y="357" width="841" height="882" filterUnits="userSpaceOnUse" color-interpolation-filters="sRGB">
<feFlood flood-opacity="0" result="BackgroundImageFix"/>
<feBlend mode="normal" in="SourceGraphic" in2="BackgroundImageFix" result="shape"/>
<feGaussianBlur stdDeviation="125" result="effect1_foregroundBlur_269_136"/>
</filter>
<filter id="filter2_f_269_136" x="1011" y="-216" width="896" height="865" filterUnits="userSpaceOnUse" color-interpolation-filters="sRGB">
<feFlood flood-opacity="0" result="BackgroundImageFix"/>
<feBlend mode="normal" in="SourceGraphic" in2="BackgroundImageFix" result="shape"/>
<feGaussianBlur stdDeviation="125" result="effect1_foregroundBlur_269_136"/>
</filter>
<clipPath id="clip0_269_136">
<rect width="1437" height="798" fill="white"/>
</clipPath>
</defs>
</svg>
