<svg width="94" height="50" viewBox="0 0 94 50" fill="none" xmlns="http://www.w3.org/2000/svg">
<g clip-path="url(#clip0_298_73)">
<path d="M13.9438 34C12.2158 34 11.3518 33.064 11.3518 31.192V11.212C11.3518 9.34 12.2158 8.404 13.9438 8.404C15.6718 8.404 16.5358 9.34 16.5358 11.212V27.196C16.5358 27.58 16.4998 28.072 16.4278 28.672C16.3798 29.248 16.3198 29.728 16.2478 30.112C16.8718 29.368 17.6398 28.996 18.5518 28.996H23.8438C24.7318 28.996 25.4158 29.212 25.8958 29.644C26.3758 30.076 26.6158 30.7 26.6158 31.516C26.6158 33.172 25.6918 34 23.8438 34H13.9438ZM35.3162 34.288C32.7482 34.288 30.7202 33.556 29.2322 32.092C27.7442 30.628 27.0002 28.264 27.0002 25C27.0002 21.712 27.7442 19.348 29.2322 17.908C30.7202 16.444 32.7482 15.712 35.3162 15.712C37.8842 15.712 39.9122 16.444 41.4002 17.908C42.8882 19.348 43.6322 21.712 43.6322 25C43.6322 28.264 42.8882 30.628 41.4002 32.092C39.9122 33.556 37.8842 34.288 35.3162 34.288ZM35.3162 29.968C35.9882 29.968 36.5522 29.836 37.0082 29.572C37.4642 29.284 37.8122 28.78 38.0522 28.06C38.3162 27.34 38.4482 26.32 38.4482 25C38.4482 23.68 38.3162 22.66 38.0522 21.94C37.8122 21.22 37.4642 20.728 37.0082 20.464C36.5522 20.176 35.9882 20.032 35.3162 20.032C34.6682 20.032 34.1042 20.176 33.6242 20.464C33.1682 20.728 32.8082 21.22 32.5442 21.94C32.3042 22.66 32.1842 23.68 32.1842 25C32.1842 26.32 32.3042 27.34 32.5442 28.06C32.8082 28.78 33.1682 29.284 33.6242 29.572C34.1042 29.836 34.6682 29.968 35.3162 29.968ZM62.7899 36.196C62.7899 38.236 61.8299 39.76 59.9099 40.768C57.9899 41.776 55.2419 42.28 51.6659 42.28C49.8179 42.28 48.4619 42.04 47.5979 41.56C46.7579 41.104 46.3379 40.384 46.3379 39.4C46.3379 38.704 46.5299 38.236 46.9139 37.996C47.2979 37.78 47.8139 37.672 48.4619 37.672C48.9419 37.672 49.3499 37.696 49.6859 37.744C50.0219 37.816 50.3819 37.876 50.7659 37.924C51.1739 37.996 51.6779 38.032 52.2779 38.032C54.1739 38.032 55.5299 37.888 56.3459 37.6C57.1859 37.312 57.6059 36.724 57.6059 35.836C57.6059 35.092 57.3059 34.492 56.7059 34.036C56.1059 33.58 55.3499 33.352 54.4379 33.352C48.9179 33.352 46.1579 30.412 46.1579 24.532C46.1579 21.532 46.8539 19.312 48.2459 17.872C49.6379 16.432 51.7139 15.712 54.4739 15.712C56.2979 15.712 57.8099 16.024 59.0099 16.648C59.5859 14.488 60.8099 13.408 62.6819 13.408C63.5939 13.408 64.2899 13.648 64.7699 14.128C65.2739 14.584 65.5259 15.256 65.5259 16.144C65.5259 16.96 65.2859 17.548 64.8059 17.908C64.3259 18.268 63.5579 18.448 62.5019 18.448C62.0459 18.448 61.6259 18.484 61.2419 18.556C62.2739 19.996 62.7899 22 62.7899 24.568C62.7899 26.176 62.5499 27.508 62.0699 28.564C61.6139 29.62 60.7619 30.496 59.5139 31.192C60.7139 31.624 61.5539 32.296 62.0339 33.208C62.5379 34.096 62.7899 35.092 62.7899 36.196ZM51.3419 24.532C51.3419 27.532 52.3859 29.032 54.4739 29.032C56.5619 29.032 57.6059 27.532 57.6059 24.532C57.6059 22.972 57.3419 21.832 56.8139 21.112C56.3099 20.392 55.5299 20.032 54.4739 20.032C53.4419 20.032 52.6619 20.392 52.1339 21.112C51.6059 21.832 51.3419 22.972 51.3419 24.532ZM74.6561 34.288C72.0881 34.288 70.0601 33.556 68.5721 32.092C67.0841 30.628 66.3401 28.264 66.3401 25C66.3401 21.712 67.0841 19.348 68.5721 17.908C70.0601 16.444 72.0881 15.712 74.6561 15.712C77.2241 15.712 79.2521 16.444 80.7401 17.908C82.2281 19.348 82.9721 21.712 82.9721 25C82.9721 28.264 82.2281 30.628 80.7401 32.092C79.2521 33.556 77.2241 34.288 74.6561 34.288ZM74.6561 29.968C75.3281 29.968 75.8921 29.836 76.3481 29.572C76.8041 29.284 77.1521 28.78 77.3921 28.06C77.6561 27.34 77.7881 26.32 77.7881 25C77.7881 23.68 77.6561 22.66 77.3921 21.94C77.1521 21.22 76.8041 20.728 76.3481 20.464C75.8921 20.176 75.3281 20.032 74.6561 20.032C74.0081 20.032 73.4441 20.176 72.9641 20.464C72.5081 20.728 72.1481 21.22 71.8841 21.94C71.6441 22.66 71.5241 23.68 71.5241 25C71.5241 26.32 71.6441 27.34 71.8841 28.06C72.1481 28.78 72.5081 29.284 72.9641 29.572C73.4441 29.836 74.0081 29.968 74.6561 29.968Z" fill="white"/>
</g>
<defs>
<clipPath id="clip0_298_73">
<rect width="94" height="50" fill="white"/>
</clipPath>
</defs>
</svg>
