<svg width="130" height="140" viewBox="0 0 130 140" fill="none" xmlns="http://www.w3.org/2000/svg">
<g clip-path="url(#clip0_271_185)">
<ellipse cx="104.5" cy="50" rx="12.5" ry="12" fill="#030303"/>
<path d="M112.306 65.368V101.176C112.306 107.448 111.538 112.472 110.002 116.248C108.53 120.024 105.938 122.776 102.226 124.504C98.5135 126.168 93.2655 127 86.4815 127C79.4415 127 73.9695 126.168 70.0655 124.504C66.2255 122.776 63.5375 120.024 62.0015 116.248C60.4655 112.472 59.6975 107.448 59.6975 101.176V65.368H75.0575V100.888C75.0575 104.152 75.3775 106.712 76.0175 108.568C76.6575 110.424 77.8095 111.736 79.4735 112.504C81.1375 113.208 83.4735 113.56 86.4815 113.56C89.2975 113.56 91.4415 113.208 92.9135 112.504C94.4495 111.736 95.5055 110.424 96.0815 108.568C96.6575 106.712 96.9455 104.152 96.9455 100.888V65.368H112.306Z" fill="#0F0F0F"/>
<circle cx="68" cy="50" r="12" fill="black"/>
</g>
<defs>
<clipPath id="clip0_271_185">
<rect width="130" height="140" fill="white"/>
</clipPath>
</defs>
</svg>
